<svg width="342" height="33" viewBox="0 0 342 33" fill="none" xmlns="http://www.w3.org/2000/svg">
<path d="M15.0254 1.60449C16.3112 1.7347 17.4668 2.01953 18.4922 2.45898C19.5176 2.89844 20.3883 3.50065 21.1045 4.26562C21.8369 5.01432 22.3984 5.92578 22.7891 7C23.1797 8.07422 23.375 9.31934 23.375 10.7354C23.375 11.598 23.2936 12.4281 23.1309 13.2256C22.9844 14.0068 22.7321 14.7474 22.374 15.4473C22.016 16.1471 21.5439 16.7738 20.958 17.3271C20.3883 17.8805 19.6803 18.3444 18.834 18.7188C18.1178 19.028 17.3773 19.264 16.6123 19.4268C15.8473 19.5895 15.0091 19.7116 14.0977 19.793C13.1862 19.8743 12.1771 19.9232 11.0703 19.9395C9.97982 19.9557 8.75098 19.9639 7.38379 19.9639L7.43262 31.8535L4.13672 31.8047L4.18555 6.53613C4.18555 5.38053 3.86816 4.50163 3.2334 3.89941C2.61491 3.28092 1.72786 2.80078 0.572266 2.45898V1.43359C2.44401 1.43359 4.07161 1.43359 5.45508 1.43359C6.85482 1.43359 8.04297 1.43359 9.01953 1.43359C10.0124 1.43359 10.8343 1.44173 11.4854 1.45801C12.1527 1.47428 12.7061 1.49056 13.1455 1.50684C13.6012 1.50684 13.9674 1.52311 14.2441 1.55566C14.5208 1.57194 14.7812 1.58822 15.0254 1.60449ZM13.8535 17.4004C14.6999 17.4004 15.4974 17.2376 16.2461 16.9121C16.9948 16.5703 17.6458 16.0902 18.1992 15.4717C18.7689 14.8532 19.2165 14.1126 19.542 13.25C19.8675 12.3711 20.0303 11.4108 20.0303 10.3691C20.0465 9.27865 19.8919 8.31836 19.5664 7.48828C19.2409 6.6582 18.7933 5.96647 18.2236 5.41309C17.654 4.84342 16.9948 4.42025 16.2461 4.14355C15.4974 3.85059 14.6999 3.7041 13.8535 3.7041H7.38379V17.4004H13.8535ZM41.0996 0.945312C42.5156 0.945312 43.8828 1.13249 45.2012 1.50684C46.5358 1.88118 47.7728 2.41016 48.9121 3.09375C50.0677 3.76107 51.1175 4.56673 52.0615 5.51074C53.0055 6.45475 53.8112 7.50456 54.4785 8.66016C55.1458 9.79948 55.6667 11.0446 56.041 12.3955C56.4154 13.7301 56.6025 15.1136 56.6025 16.5459C56.6025 17.9945 56.4154 19.3861 56.041 20.7207C55.6667 22.0391 55.1458 23.276 54.4785 24.4316C53.8112 25.571 53.0055 26.6126 52.0615 27.5566C51.1175 28.4844 50.0677 29.2819 48.9121 29.9492C47.7728 30.6165 46.5358 31.1374 45.2012 31.5117C43.8828 31.8698 42.5156 32.0488 41.0996 32.0488C39.651 32.0488 38.2594 31.8698 36.9248 31.5117C35.5902 31.1374 34.3451 30.6165 33.1895 29.9492C32.0501 29.2819 31.0085 28.4844 30.0645 27.5566C29.1204 26.6126 28.3066 25.571 27.623 24.4316C26.9557 23.276 26.4349 22.0391 26.0605 20.7207C25.6862 19.3861 25.499 17.9945 25.499 16.5459C25.499 15.1136 25.6862 13.7301 26.0605 12.3955C26.4349 11.0446 26.9557 9.79948 27.623 8.66016C28.3066 7.50456 29.1204 6.45475 30.0645 5.51074C31.0085 4.56673 32.0501 3.76107 33.1895 3.09375C34.3451 2.41016 35.5902 1.88118 36.9248 1.50684C38.2594 1.13249 39.651 0.945312 41.0996 0.945312ZM41.0996 29.0215C42.8086 29.0215 44.4199 28.696 45.9336 28.0449C47.4635 27.3776 48.79 26.4824 49.9131 25.3594C51.0524 24.2201 51.9557 22.8936 52.623 21.3799C53.2904 19.8662 53.624 18.2549 53.624 16.5459C53.624 14.8206 53.2904 13.193 52.623 11.6631C51.9557 10.1331 51.0524 8.7985 49.9131 7.65918C48.79 6.50358 47.4635 5.59212 45.9336 4.9248C44.4199 4.25749 42.8086 3.92383 41.0996 3.92383C39.3581 3.92383 37.7223 4.25749 36.1924 4.9248C34.6787 5.59212 33.3522 6.50358 32.2129 7.65918C31.0898 8.7985 30.1947 10.1331 29.5273 11.6631C28.86 13.193 28.5264 14.8206 28.5264 16.5459C28.5264 18.2549 28.86 19.8662 29.5273 21.3799C30.1947 22.8936 31.0898 24.2201 32.2129 25.3594C33.3522 26.4824 34.6787 27.3776 36.1924 28.0449C37.7223 28.696 39.3581 29.0215 41.0996 29.0215ZM81.5537 31.292H77.6475L71.959 19.5977C71.7962 19.6139 71.5846 19.6221 71.3242 19.6221C71.0638 19.6221 70.7708 19.6302 70.4453 19.6465C70.1361 19.6465 69.7943 19.6546 69.4199 19.6709C69.0618 19.6709 68.7119 19.6709 68.3701 19.6709C67.5563 19.6872 66.6855 19.6872 65.7578 19.6709L65.8311 31.292L62.5352 31.3408L62.584 6.46289C62.584 5.79557 62.5107 5.27474 62.3643 4.90039C62.234 4.52604 62.0794 4.2168 61.9004 3.97266C61.7865 3.85872 61.6644 3.73665 61.5342 3.60645C61.404 3.47624 61.2331 3.34603 61.0215 3.21582C60.8099 3.06934 60.5413 2.93099 60.2158 2.80078C59.9066 2.67057 59.516 2.5485 59.0439 2.43457V1.43359C61.5667 1.43359 63.764 1.41732 65.6357 1.38477C67.5075 1.35221 69.1514 1.36849 70.5674 1.43359C71.9834 1.48242 73.2204 1.59635 74.2783 1.77539C75.3525 1.93815 76.3454 2.22298 77.2568 2.62988C77.9079 2.92285 78.4857 3.30534 78.9902 3.77734C79.5111 4.23307 79.9587 4.7946 80.333 5.46191C80.7399 6.06413 81.041 6.79655 81.2363 7.65918C81.4479 8.52181 81.5537 9.4821 81.5537 10.54C81.5537 11.6794 81.4316 12.6966 81.1875 13.5918C80.9596 14.487 80.5934 15.2845 80.0889 15.9844C79.5843 16.668 78.9414 17.2702 78.1602 17.791C77.3789 18.2956 76.4349 18.735 75.3281 19.1094L81.5537 31.292ZM72.1787 17.1807C73.0088 17.1807 73.79 17.0179 74.5225 16.6924C75.2712 16.3506 75.9222 15.8786 76.4756 15.2764C77.029 14.6742 77.4684 13.9417 77.7939 13.0791C78.1195 12.2165 78.2822 11.2562 78.2822 10.1982C78.2985 9.1403 78.1439 8.20443 77.8184 7.39062C77.4928 6.57682 77.0534 5.90137 76.5 5.36426C75.9466 4.81087 75.2956 4.39583 74.5469 4.11914C73.7982 3.84245 73.0088 3.7041 72.1787 3.7041H65.8311V17.1807H72.1787ZM104.527 5.14453C103.648 4.78646 102.713 4.44466 101.72 4.11914C100.743 3.77734 99.7666 3.54134 98.79 3.41113C97.8135 3.26465 96.8532 3.26465 95.9092 3.41113C94.9652 3.55762 94.0944 3.93197 93.2969 4.53418C92.8086 4.94108 92.4424 5.41309 92.1982 5.9502C91.9704 6.4873 91.8564 7.07324 91.8564 7.70801C91.8564 8.55436 92.0273 9.27051 92.3691 9.85645C92.7109 10.4424 93.1504 11.0039 93.6875 11.541C94.5339 12.1595 95.4046 12.7048 96.2998 13.1768C97.195 13.6488 98.0902 14.1126 98.9854 14.5684C99.8968 15.0241 100.768 15.5042 101.598 16.0088C102.444 16.5133 103.233 17.0993 103.966 17.7666C104.617 18.4014 105.138 19.1094 105.528 19.8906C105.935 20.6719 106.212 21.4857 106.358 22.332C106.505 23.1621 106.513 24.0085 106.383 24.8711C106.269 25.7337 106.017 26.5557 105.626 27.3369C105.203 28.2484 104.609 29.0133 103.844 29.6318C103.079 30.234 102.241 30.7142 101.329 31.0723C100.434 31.4303 99.4899 31.6908 98.4971 31.8535C97.5042 32 96.5602 32.0732 95.665 32.0732C94.4118 32.0732 93.1992 31.9837 92.0273 31.8047C90.8555 31.6094 89.6999 31.3896 88.5605 31.1455V28.1426C89.8301 28.7122 91.0996 29.1761 92.3691 29.5342C93.6549 29.8923 94.9733 30.0713 96.3242 30.0713C97.2845 30.0713 98.1471 29.9574 98.9121 29.7295C99.6771 29.5016 100.328 29.1598 100.865 28.7041C101.972 27.695 102.525 26.2952 102.525 24.5049C102.525 23.6911 102.346 22.9261 101.988 22.21C101.646 21.4938 101.183 20.8916 100.597 20.4033C99.7666 19.8337 98.904 19.3128 98.0088 18.8408C97.1136 18.3688 96.2266 17.9049 95.3477 17.4492C94.4688 16.9772 93.6224 16.4889 92.8086 15.9844C91.9948 15.4635 91.2542 14.8695 90.5869 14.2021C89.057 12.6722 88.292 10.8737 88.292 8.80664C88.292 6.43034 89.1465 4.60742 90.8555 3.33789C91.4577 2.86589 92.1169 2.49154 92.833 2.21484C93.5654 1.92188 94.3223 1.71029 95.1035 1.58008C95.901 1.43359 96.7148 1.35221 97.5449 1.33594C98.3913 1.31966 99.2132 1.34408 100.011 1.40918C100.825 1.47428 101.614 1.57194 102.379 1.70215C103.16 1.81608 103.876 1.94629 104.527 2.09277V5.14453ZM117.052 23.2109V31.5117H113.512V6.46289C113.512 5.7793 113.438 5.25033 113.292 4.87598C113.146 4.48535 112.983 4.17611 112.804 3.94824C112.69 3.81803 112.56 3.67969 112.413 3.5332C112.283 3.37044 112.112 3.22396 111.9 3.09375C111.689 2.96354 111.42 2.83333 111.095 2.70312C110.785 2.55664 110.395 2.42643 109.923 2.3125V1.43359H117.052V23.2109ZM150.865 32H147.398L143.199 22.4297H129.942L125.743 32H122.252L133.849 5.29102C133.897 5.07943 133.938 4.89225 133.971 4.72949C134.003 4.56673 134.02 4.42839 134.02 4.31445C134.02 3.79362 133.71 3.37858 133.092 3.06934C132.896 2.93913 132.693 2.83333 132.481 2.75195C132.286 2.67057 132.115 2.60547 131.969 2.55664C131.773 2.49154 131.586 2.45085 131.407 2.43457V1.38477H135.533H137.535L150.865 32ZM141.93 19.5977L136.559 7.39062L131.188 19.5977H141.93ZM184.703 26.9463C184.964 27.223 185.338 27.6299 185.826 28.167C186.331 28.7041 186.843 29.2656 187.364 29.8516C187.901 30.4212 188.406 30.9583 188.878 31.4629C189.366 31.9512 189.732 32.293 189.977 32.4883H185.802C185.655 32.4232 185.427 32.2279 185.118 31.9023C184.809 31.5768 184.475 31.2188 184.117 30.8281C183.775 30.4375 183.45 30.0632 183.141 29.7051C182.848 29.3307 182.636 29.0622 182.506 28.8994C181.367 30.0225 180.081 30.9014 178.648 31.5361C177.216 32.1709 175.67 32.4883 174.01 32.4883C172.691 32.4883 171.528 32.2767 170.519 31.8535C169.509 31.4303 168.655 30.8525 167.955 30.1201C167.271 29.3877 166.751 28.5413 166.393 27.5811C166.051 26.6045 165.88 25.5791 165.88 24.5049C165.88 23.7399 166.026 22.9912 166.319 22.2588C166.612 21.5101 166.995 20.7939 167.467 20.1104C167.939 19.4105 168.468 18.7513 169.054 18.1328C169.656 17.5143 170.258 16.9528 170.86 16.4482C171.463 15.9274 172.04 15.4798 172.594 15.1055C173.147 14.7148 173.619 14.4056 174.01 14.1777C173.701 12.9896 173.538 11.8421 173.521 10.7354C173.521 9.62858 173.644 8.52181 173.888 7.41504C174.164 6.3571 174.539 5.42122 175.011 4.60742C175.499 3.77734 176.069 3.07747 176.72 2.50781C177.387 1.93815 178.128 1.50684 178.941 1.21387C179.771 0.920898 180.675 0.774414 181.651 0.774414C182.384 0.774414 183.084 0.863932 183.751 1.04297C184.418 1.22201 185.029 1.47428 185.582 1.7998C186.135 2.12533 186.599 2.50781 186.974 2.94727C187.364 3.38672 187.633 3.85059 187.779 4.33887C187.844 4.64811 187.877 4.91667 187.877 5.14453C187.893 5.3724 187.901 5.63281 187.901 5.92578H184.85C184.85 5.82812 184.841 5.72233 184.825 5.6084C184.809 5.52702 184.785 5.4375 184.752 5.33984C184.736 5.22591 184.719 5.13639 184.703 5.07129C184.638 4.90853 184.516 4.74577 184.337 4.58301C184.158 4.40397 183.93 4.24121 183.653 4.09473C183.393 3.94824 183.092 3.83431 182.75 3.75293C182.408 3.65527 182.042 3.60645 181.651 3.60645C181.342 3.62272 180.968 3.68783 180.528 3.80176C180.089 3.91569 179.641 4.13542 179.186 4.46094C178.746 4.77018 178.323 5.21777 177.916 5.80371C177.525 6.38965 177.208 7.17904 176.964 8.17188C176.736 9.01823 176.63 9.89714 176.646 10.8086C176.679 11.7201 176.801 12.6315 177.013 13.543C177.224 14.4544 177.517 15.374 177.892 16.3018C178.282 17.2295 178.714 18.141 179.186 19.0361C179.658 19.915 180.162 20.7777 180.699 21.624C181.253 22.4704 181.806 23.2679 182.359 24.0166C182.848 23.0889 183.312 22.096 183.751 21.0381C184.19 19.9801 184.508 18.9548 184.703 17.9619C184.703 17.7992 184.654 17.5957 184.557 17.3516C184.475 17.0911 184.361 16.8877 184.215 16.7412C184.117 16.6436 184.011 16.5459 183.897 16.4482C183.8 16.3343 183.67 16.2285 183.507 16.1309C183.36 16.0169 183.165 15.9111 182.921 15.8135C182.677 15.6995 182.368 15.6019 181.993 15.5205V14.7637H188.023C188.023 15.8867 187.95 16.9121 187.804 17.8398C187.674 18.7676 187.462 19.6628 187.169 20.5254C186.892 21.388 186.542 22.2588 186.119 23.1377C185.712 24.0166 185.24 24.9606 184.703 25.9697C184.703 26.0348 184.662 26.1243 184.581 26.2383C184.5 26.3522 184.459 26.4661 184.459 26.5801C184.459 26.6615 184.5 26.7347 184.581 26.7998C184.662 26.8486 184.703 26.8975 184.703 26.9463ZM174.132 29.7783C175.434 29.7783 176.63 29.5179 177.721 28.9971C178.811 28.4762 179.828 27.7601 180.772 26.8486C180.219 26.165 179.658 25.4408 179.088 24.6758C178.518 23.8945 177.965 23.0807 177.428 22.2344C176.907 21.3717 176.41 20.4847 175.938 19.5732C175.483 18.6455 175.084 17.7015 174.742 16.7412C174.189 17.1807 173.57 17.7015 172.887 18.3037C172.203 18.9059 171.56 19.557 170.958 20.2568C170.372 20.9567 169.868 21.6729 169.444 22.4053C169.037 23.1214 168.834 23.8213 168.834 24.5049C168.834 25.2699 168.972 25.9779 169.249 26.6289C169.526 27.2637 169.9 27.8171 170.372 28.2891C170.86 28.7611 171.422 29.1273 172.057 29.3877C172.691 29.6481 173.383 29.7783 174.132 29.7783ZM231.773 32H228.307L224.107 22.4297H210.851L206.651 32H203.16L214.757 5.29102C214.806 5.07943 214.846 4.89225 214.879 4.72949C214.911 4.56673 214.928 4.42839 214.928 4.31445C214.928 3.79362 214.618 3.37858 214 3.06934C213.805 2.93913 213.601 2.83333 213.39 2.75195C213.194 2.67057 213.023 2.60547 212.877 2.55664C212.682 2.49154 212.494 2.45085 212.315 2.43457V1.38477H216.441H218.443L231.773 32ZM222.838 19.5977L217.467 7.39062L212.096 19.5977H222.838ZM261.144 31.8291H258.604L239.635 7.85449V31.9268H236.925V4.97363C236.811 4.56673 236.616 4.19238 236.339 3.85059C236.095 3.57389 235.737 3.30534 235.265 3.04492C234.793 2.78451 234.166 2.63802 233.385 2.60547V1.48242L239.562 1.50684L258.507 25.0176V1.50684H261.144V31.8291ZM292.052 16.9609V28.3867C291.922 28.5495 291.726 28.7285 291.466 28.9238C291.254 29.1029 290.978 29.3063 290.636 29.5342C290.31 29.762 289.911 30.0143 289.439 30.291C288.333 30.9909 287.112 31.4792 285.777 31.7559C284.459 32.0163 283.124 32.1465 281.773 32.1465C279.902 32.1465 278.144 31.8535 276.5 31.2676C274.872 30.6654 273.408 29.8353 272.105 28.7773C270.803 27.7194 269.68 26.4743 268.736 25.042C267.792 23.5934 267.084 22.0228 266.612 20.3301C266.466 19.5 266.368 18.6699 266.319 17.8398C266.271 17.0098 266.279 16.1797 266.344 15.3496C266.409 14.5033 266.531 13.6569 266.71 12.8105C266.905 11.9642 267.174 11.1016 267.516 10.2227C268.02 9.00195 268.671 7.87891 269.469 6.85352C270.283 5.82812 271.202 4.9248 272.228 4.14355C273.253 3.3623 274.36 2.71126 275.548 2.19043C276.752 1.6696 277.989 1.30339 279.259 1.0918C280.528 0.863932 281.822 0.806966 283.141 0.920898C284.459 1.03483 285.745 1.3278 286.998 1.7998C287.486 2.01139 287.918 2.21484 288.292 2.41016C288.683 2.58919 289.065 2.8252 289.439 3.11816C289.586 2.97168 289.724 2.83333 289.854 2.70312C290.001 2.55664 290.139 2.38574 290.27 2.19043C290.416 1.97884 290.554 1.71029 290.685 1.38477C290.831 1.05924 290.978 0.636068 291.124 0.115234H292.052V8.92871H291.686C291.344 8.42415 290.912 7.93587 290.392 7.46387C289.871 6.99186 289.309 6.56055 288.707 6.16992C288.105 5.7793 287.47 5.4375 286.803 5.14453C286.152 4.83529 285.533 4.59928 284.947 4.43652C283.954 4.12728 282.896 3.99707 281.773 4.0459C280.667 4.09473 279.576 4.27376 278.502 4.58301C277.444 4.87598 276.451 5.29915 275.523 5.85254C274.596 6.40592 273.806 7.05697 273.155 7.80566C272.13 8.94499 271.308 10.2715 270.689 11.7852C270.071 13.2988 269.762 14.902 269.762 16.5947C269.762 18.2549 270.071 19.8337 270.689 21.3311C271.324 22.8122 272.187 24.1224 273.277 25.2617C274.368 26.3848 275.654 27.2799 277.135 27.9473C278.632 28.6146 280.235 28.9482 281.944 28.9482C282.612 28.9482 283.238 28.9076 283.824 28.8262C284.41 28.7285 284.972 28.582 285.509 28.3867C286.062 28.1914 286.616 27.9554 287.169 27.6787C287.722 27.402 288.292 27.0765 288.878 26.7021V20.1592H285.313C285.802 19.6872 286.233 19.1826 286.607 18.6455C286.982 18.0921 287.307 17.5306 287.584 16.9609H292.052ZM317.638 29.1924V32H298.766V6.14551C298.701 5.51074 298.603 5.02246 298.473 4.68066C298.342 4.33887 298.106 4.01335 297.765 3.7041C297.537 3.47624 297.211 3.24023 296.788 2.99609C296.365 2.73568 295.803 2.52409 295.104 2.36133L295.079 1.40918H317.638V4.46094H302.208V15.1299H315.953V17.9619H302.208V29.1924H317.638ZM341.197 29.0947V32.0244H324.547V6.60938C324.547 5.92578 324.474 5.38867 324.327 4.99805C324.181 4.59115 324.01 4.27376 323.814 4.0459C323.701 3.93197 323.578 3.8099 323.448 3.67969C323.334 3.54948 323.163 3.41927 322.936 3.28906C322.724 3.14258 322.455 3.00423 322.13 2.87402C321.821 2.74382 321.414 2.62174 320.909 2.50781V1.48242L328.136 1.40918V29.0947H341.197Z" fill="white"/>
</svg>
