<svg width="165" height="17" viewBox="0 0 165 17" fill="none" xmlns="http://www.w3.org/2000/svg">
<path d="M7.49219 1.41016C8.10938 1.47266 8.66406 1.60938 9.15625 1.82031C9.64844 2.03125 10.0664 2.32031 10.4102 2.6875C10.7617 3.04688 11.0312 3.48438 11.2188 4C11.4062 4.51562 11.5 5.11328 11.5 5.79297C11.5 6.20703 11.4609 6.60547 11.3828 6.98828C11.3125 7.36328 11.1914 7.71875 11.0195 8.05469C10.8477 8.39062 10.6211 8.69141 10.3398 8.95703C10.0664 9.22266 9.72656 9.44531 9.32031 9.625C8.97656 9.77344 8.62109 9.88672 8.25391 9.96484C7.88672 10.043 7.48438 10.1016 7.04688 10.1406C6.60938 10.1797 6.125 10.2031 5.59375 10.2109C5.07031 10.2188 4.48047 10.2227 3.82422 10.2227L3.84766 15.9297L2.26562 15.9062L2.28906 3.77734C2.28906 3.22266 2.13672 2.80078 1.83203 2.51172C1.53516 2.21484 1.10938 1.98438 0.554688 1.82031V1.32812C1.45312 1.32812 2.23438 1.32812 2.89844 1.32812C3.57031 1.32812 4.14062 1.32812 4.60938 1.32812C5.08594 1.32812 5.48047 1.33203 5.79297 1.33984C6.11328 1.34766 6.37891 1.35547 6.58984 1.36328C6.80859 1.36328 6.98438 1.37109 7.11719 1.38672C7.25 1.39453 7.375 1.40234 7.49219 1.41016ZM6.92969 8.99219C7.33594 8.99219 7.71875 8.91406 8.07812 8.75781C8.4375 8.59375 8.75 8.36328 9.01562 8.06641C9.28906 7.76953 9.50391 7.41406 9.66016 7C9.81641 6.57812 9.89453 6.11719 9.89453 5.61719C9.90234 5.09375 9.82812 4.63281 9.67188 4.23438C9.51562 3.83594 9.30078 3.50391 9.02734 3.23828C8.75391 2.96484 8.4375 2.76172 8.07812 2.62891C7.71875 2.48828 7.33594 2.41797 6.92969 2.41797H3.82422V8.99219H6.92969ZM20.0078 1.09375C20.6875 1.09375 21.3438 1.18359 21.9766 1.36328C22.6172 1.54297 23.2109 1.79688 23.7578 2.125C24.3125 2.44531 24.8164 2.83203 25.2695 3.28516C25.7227 3.73828 26.1094 4.24219 26.4297 4.79688C26.75 5.34375 27 5.94141 27.1797 6.58984C27.3594 7.23047 27.4492 7.89453 27.4492 8.58203C27.4492 9.27734 27.3594 9.94531 27.1797 10.5859C27 11.2188 26.75 11.8125 26.4297 12.3672C26.1094 12.9141 25.7227 13.4141 25.2695 13.8672C24.8164 14.3125 24.3125 14.6953 23.7578 15.0156C23.2109 15.3359 22.6172 15.5859 21.9766 15.7656C21.3438 15.9375 20.6875 16.0234 20.0078 16.0234C19.3125 16.0234 18.6445 15.9375 18.0039 15.7656C17.3633 15.5859 16.7656 15.3359 16.2109 15.0156C15.6641 14.6953 15.1641 14.3125 14.7109 13.8672C14.2578 13.4141 13.8672 12.9141 13.5391 12.3672C13.2188 11.8125 12.9688 11.2188 12.7891 10.5859C12.6094 9.94531 12.5195 9.27734 12.5195 8.58203C12.5195 7.89453 12.6094 7.23047 12.7891 6.58984C12.9688 5.94141 13.2188 5.34375 13.5391 4.79688C13.8672 4.24219 14.2578 3.73828 14.7109 3.28516C15.1641 2.83203 15.6641 2.44531 16.2109 2.125C16.7656 1.79688 17.3633 1.54297 18.0039 1.36328C18.6445 1.18359 19.3125 1.09375 20.0078 1.09375ZM20.0078 14.5703C20.8281 14.5703 21.6016 14.4141 22.3281 14.1016C23.0625 13.7812 23.6992 13.3516 24.2383 12.8125C24.7852 12.2656 25.2188 11.6289 25.5391 10.9023C25.8594 10.1758 26.0195 9.40234 26.0195 8.58203C26.0195 7.75391 25.8594 6.97266 25.5391 6.23828C25.2188 5.50391 24.7852 4.86328 24.2383 4.31641C23.6992 3.76172 23.0625 3.32422 22.3281 3.00391C21.6016 2.68359 20.8281 2.52344 20.0078 2.52344C19.1719 2.52344 18.3867 2.68359 17.6523 3.00391C16.9258 3.32422 16.2891 3.76172 15.7422 4.31641C15.2031 4.86328 14.7734 5.50391 14.4531 6.23828C14.1328 6.97266 13.9727 7.75391 13.9727 8.58203C13.9727 9.40234 14.1328 10.1758 14.4531 10.9023C14.7734 11.6289 15.2031 12.2656 15.7422 12.8125C16.2891 13.3516 16.9258 13.7812 17.6523 14.1016C18.3867 14.4141 19.1719 14.5703 20.0078 14.5703ZM39.4258 15.6602H37.5508L34.8203 10.0469C34.7422 10.0547 34.6406 10.0586 34.5156 10.0586C34.3906 10.0586 34.25 10.0625 34.0938 10.0703C33.9453 10.0703 33.7812 10.0742 33.6016 10.082C33.4297 10.082 33.2617 10.082 33.0977 10.082C32.707 10.0898 32.2891 10.0898 31.8438 10.082L31.8789 15.6602L30.2969 15.6836L30.3203 3.74219C30.3203 3.42188 30.2852 3.17187 30.2148 2.99219C30.1523 2.8125 30.0781 2.66406 29.9922 2.54688C29.9375 2.49219 29.8789 2.43359 29.8164 2.37109C29.7539 2.30859 29.6719 2.24609 29.5703 2.18359C29.4688 2.11328 29.3398 2.04687 29.1836 1.98438C29.0352 1.92188 28.8477 1.86328 28.6211 1.80859V1.32812C29.832 1.32812 30.8867 1.32031 31.7852 1.30469C32.6836 1.28906 33.4727 1.29687 34.1523 1.32812C34.832 1.35156 35.4258 1.40625 35.9336 1.49219C36.4492 1.57031 36.9258 1.70703 37.3633 1.90234C37.6758 2.04297 37.9531 2.22656 38.1953 2.45312C38.4453 2.67188 38.6602 2.94141 38.8398 3.26172C39.0352 3.55078 39.1797 3.90234 39.2734 4.31641C39.375 4.73047 39.4258 5.19141 39.4258 5.69922C39.4258 6.24609 39.3672 6.73438 39.25 7.16406C39.1406 7.59375 38.9648 7.97656 38.7227 8.3125C38.4805 8.64062 38.1719 8.92969 37.7969 9.17969C37.4219 9.42188 36.9688 9.63281 36.4375 9.8125L39.4258 15.6602ZM34.9258 8.88672C35.3242 8.88672 35.6992 8.80859 36.0508 8.65234C36.4102 8.48828 36.7227 8.26172 36.9883 7.97266C37.2539 7.68359 37.4648 7.33203 37.6211 6.91797C37.7773 6.50391 37.8555 6.04297 37.8555 5.53516C37.8633 5.02734 37.7891 4.57812 37.6328 4.1875C37.4766 3.79688 37.2656 3.47266 37 3.21484C36.7344 2.94922 36.4219 2.75 36.0625 2.61719C35.7031 2.48438 35.3242 2.41797 34.9258 2.41797H31.8789V8.88672H34.9258ZM50.4531 3.10938C50.0312 2.9375 49.582 2.77344 49.1055 2.61719C48.6367 2.45312 48.168 2.33984 47.6992 2.27734C47.2305 2.20703 46.7695 2.20703 46.3164 2.27734C45.8633 2.34766 45.4453 2.52734 45.0625 2.81641C44.8281 3.01172 44.6523 3.23828 44.5352 3.49609C44.4258 3.75391 44.3711 4.03516 44.3711 4.33984C44.3711 4.74609 44.4531 5.08984 44.6172 5.37109C44.7812 5.65234 44.9922 5.92188 45.25 6.17969C45.6562 6.47656 46.0742 6.73828 46.5039 6.96484C46.9336 7.19141 47.3633 7.41406 47.793 7.63281C48.2305 7.85156 48.6484 8.08203 49.0469 8.32422C49.4531 8.56641 49.832 8.84766 50.1836 9.16797C50.4961 9.47266 50.7461 9.8125 50.9336 10.1875C51.1289 10.5625 51.2617 10.9531 51.332 11.3594C51.4023 11.7578 51.4062 12.1641 51.3438 12.5781C51.2891 12.9922 51.168 13.3867 50.9805 13.7617C50.7773 14.1992 50.4922 14.5664 50.125 14.8633C49.7578 15.1523 49.3555 15.3828 48.918 15.5547C48.4883 15.7266 48.0352 15.8516 47.5586 15.9297C47.082 16 46.6289 16.0352 46.1992 16.0352C45.5977 16.0352 45.0156 15.9922 44.4531 15.9062C43.8906 15.8125 43.3359 15.707 42.7891 15.5898V14.1484C43.3984 14.4219 44.0078 14.6445 44.6172 14.8164C45.2344 14.9883 45.8672 15.0742 46.5156 15.0742C46.9766 15.0742 47.3906 15.0195 47.7578 14.9102C48.125 14.8008 48.4375 14.6367 48.6953 14.418C49.2266 13.9336 49.4922 13.2617 49.4922 12.4023C49.4922 12.0117 49.4062 11.6445 49.2344 11.3008C49.0703 10.957 48.8477 10.668 48.5664 10.4336C48.168 10.1602 47.7539 9.91016 47.3242 9.68359C46.8945 9.45703 46.4688 9.23438 46.0469 9.01562C45.625 8.78906 45.2188 8.55469 44.8281 8.3125C44.4375 8.0625 44.082 7.77734 43.7617 7.45703C43.0273 6.72266 42.6602 5.85938 42.6602 4.86719C42.6602 3.72656 43.0703 2.85156 43.8906 2.24219C44.1797 2.01563 44.4961 1.83594 44.8398 1.70312C45.1914 1.5625 45.5547 1.46094 45.9297 1.39844C46.3125 1.32812 46.7031 1.28906 47.1016 1.28125C47.5078 1.27344 47.9023 1.28516 48.2852 1.31641C48.6758 1.34766 49.0547 1.39453 49.4219 1.45703C49.7969 1.51172 50.1406 1.57422 50.4531 1.64453V3.10938ZM56.4648 11.7812V15.7656H54.7656V3.74219C54.7656 3.41406 54.7305 3.16016 54.6602 2.98047C54.5898 2.79297 54.5117 2.64453 54.4258 2.53516C54.3711 2.47266 54.3086 2.40625 54.2383 2.33594C54.1758 2.25781 54.0938 2.1875 53.9922 2.125C53.8906 2.0625 53.7617 2 53.6055 1.9375C53.457 1.86719 53.2695 1.80469 53.043 1.75V1.32812H56.4648V11.7812ZM72.6953 16H71.0312L69.0156 11.4062H62.6523L60.6367 16H58.9609L64.5273 3.17969C64.5508 3.07812 64.5703 2.98828 64.5859 2.91016C64.6016 2.83203 64.6094 2.76563 64.6094 2.71094C64.6094 2.46094 64.4609 2.26172 64.1641 2.11328C64.0703 2.05078 63.9727 2 63.8711 1.96094C63.7773 1.92188 63.6953 1.89062 63.625 1.86719C63.5312 1.83594 63.4414 1.81641 63.3555 1.80859V1.30469H65.3359H66.2969L72.6953 16ZM68.4062 10.0469L65.8281 4.1875L63.25 10.0469H68.4062ZM88.9375 13.5742C89.0625 13.707 89.2422 13.9023 89.4766 14.1602C89.7188 14.418 89.9648 14.6875 90.2148 14.9688C90.4727 15.2422 90.7148 15.5 90.9414 15.7422C91.1758 15.9766 91.3516 16.1406 91.4688 16.2344H89.4648C89.3945 16.2031 89.2852 16.1094 89.1367 15.9531C88.9883 15.7969 88.8281 15.625 88.6562 15.4375C88.4922 15.25 88.3359 15.0703 88.1875 14.8984C88.0469 14.7188 87.9453 14.5898 87.8828 14.5117C87.3359 15.0508 86.7188 15.4727 86.0312 15.7773C85.3438 16.082 84.6016 16.2344 83.8047 16.2344C83.1719 16.2344 82.6133 16.1328 82.1289 15.9297C81.6445 15.7266 81.2344 15.4492 80.8984 15.0977C80.5703 14.7461 80.3203 14.3398 80.1484 13.8789C79.9844 13.4102 79.9023 12.918 79.9023 12.4023C79.9023 12.0352 79.9727 11.6758 80.1133 11.3242C80.2539 10.9648 80.4375 10.6211 80.6641 10.293C80.8906 9.95703 81.1445 9.64062 81.4258 9.34375C81.7148 9.04688 82.0039 8.77734 82.293 8.53516C82.582 8.28516 82.8594 8.07031 83.125 7.89062C83.3906 7.70312 83.6172 7.55469 83.8047 7.44531C83.6562 6.875 83.5781 6.32422 83.5703 5.79297C83.5703 5.26172 83.6289 4.73047 83.7461 4.19922C83.8789 3.69141 84.0586 3.24219 84.2852 2.85156C84.5195 2.45312 84.793 2.11719 85.1055 1.84375C85.4258 1.57031 85.7812 1.36328 86.1719 1.22266C86.5703 1.08203 87.0039 1.01172 87.4727 1.01172C87.8242 1.01172 88.1602 1.05469 88.4805 1.14062C88.8008 1.22656 89.0938 1.34766 89.3594 1.50391C89.625 1.66016 89.8477 1.84375 90.0273 2.05469C90.2148 2.26562 90.3438 2.48828 90.4141 2.72266C90.4453 2.87109 90.4609 3 90.4609 3.10938C90.4688 3.21875 90.4727 3.34375 90.4727 3.48438H89.0078C89.0078 3.4375 89.0039 3.38672 88.9961 3.33203C88.9883 3.29297 88.9766 3.25 88.9609 3.20312C88.9531 3.14844 88.9453 3.10547 88.9375 3.07422C88.9062 2.99609 88.8477 2.91797 88.7617 2.83984C88.6758 2.75391 88.5664 2.67578 88.4336 2.60547C88.3086 2.53516 88.1641 2.48047 88 2.44141C87.8359 2.39453 87.6602 2.37109 87.4727 2.37109C87.3242 2.37891 87.1445 2.41016 86.9336 2.46484C86.7227 2.51953 86.5078 2.625 86.2891 2.78125C86.0781 2.92969 85.875 3.14453 85.6797 3.42578C85.4922 3.70703 85.3398 4.08594 85.2227 4.5625C85.1133 4.96875 85.0625 5.39062 85.0703 5.82812C85.0859 6.26562 85.1445 6.70312 85.2461 7.14062C85.3477 7.57812 85.4883 8.01953 85.668 8.46484C85.8555 8.91016 86.0625 9.34766 86.2891 9.77734C86.5156 10.1992 86.7578 10.6133 87.0156 11.0195C87.2812 11.4258 87.5469 11.8086 87.8125 12.168C88.0469 11.7227 88.2695 11.2461 88.4805 10.7383C88.6914 10.2305 88.8438 9.73828 88.9375 9.26172C88.9375 9.18359 88.9141 9.08594 88.8672 8.96875C88.8281 8.84375 88.7734 8.74609 88.7031 8.67578C88.6562 8.62891 88.6055 8.58203 88.5508 8.53516C88.5039 8.48047 88.4414 8.42969 88.3633 8.38281C88.293 8.32812 88.1992 8.27734 88.082 8.23047C87.9648 8.17578 87.8164 8.12891 87.6367 8.08984V7.72656H90.5312C90.5312 8.26562 90.4961 8.75781 90.4258 9.20312C90.3633 9.64844 90.2617 10.0781 90.1211 10.4922C89.9883 10.9062 89.8203 11.3242 89.6172 11.7461C89.4219 12.168 89.1953 12.6211 88.9375 13.1055C88.9375 13.1367 88.918 13.1797 88.8789 13.2344C88.8398 13.2891 88.8203 13.3438 88.8203 13.3984C88.8203 13.4375 88.8398 13.4727 88.8789 13.5039C88.918 13.5273 88.9375 13.5508 88.9375 13.5742ZM83.8633 14.9336C84.4883 14.9336 85.0625 14.8086 85.5859 14.5586C86.1094 14.3086 86.5977 13.9648 87.0508 13.5273C86.7852 13.1992 86.5156 12.8516 86.2422 12.4844C85.9688 12.1094 85.7031 11.7188 85.4453 11.3125C85.1953 10.8984 84.957 10.4727 84.7305 10.0352C84.5117 9.58984 84.3203 9.13672 84.1562 8.67578C83.8906 8.88672 83.5938 9.13672 83.2656 9.42578C82.9375 9.71484 82.6289 10.0273 82.3398 10.3633C82.0586 10.6992 81.8164 11.043 81.6133 11.3945C81.418 11.7383 81.3203 12.0742 81.3203 12.4023C81.3203 12.7695 81.3867 13.1094 81.5195 13.4219C81.6523 13.7266 81.832 13.9922 82.0586 14.2188C82.293 14.4453 82.5625 14.6211 82.8672 14.7461C83.1719 14.8711 83.5039 14.9336 83.8633 14.9336ZM111.531 16H109.867L107.852 11.4062H101.488L99.4727 16H97.7969L103.363 3.17969C103.387 3.07812 103.406 2.98828 103.422 2.91016C103.438 2.83203 103.445 2.76563 103.445 2.71094C103.445 2.46094 103.297 2.26172 103 2.11328C102.906 2.05078 102.809 2 102.707 1.96094C102.613 1.92188 102.531 1.89062 102.461 1.86719C102.367 1.83594 102.277 1.81641 102.191 1.80859V1.30469H104.172H105.133L111.531 16ZM107.242 10.0469L104.664 4.1875L102.086 10.0469H107.242ZM125.629 15.918H124.41L115.305 4.41016V15.9648H114.004V3.02734C113.949 2.83203 113.855 2.65234 113.723 2.48828C113.605 2.35547 113.434 2.22656 113.207 2.10156C112.98 1.97656 112.68 1.90625 112.305 1.89062V1.35156L115.27 1.36328L124.363 12.6484V1.36328H125.629V15.918ZM140.465 8.78125V14.2656C140.402 14.3438 140.309 14.4297 140.184 14.5234C140.082 14.6094 139.949 14.707 139.785 14.8164C139.629 14.9258 139.438 15.0469 139.211 15.1797C138.68 15.5156 138.094 15.75 137.453 15.8828C136.82 16.0078 136.18 16.0703 135.531 16.0703C134.633 16.0703 133.789 15.9297 133 15.6484C132.219 15.3594 131.516 14.9609 130.891 14.4531C130.266 13.9453 129.727 13.3477 129.273 12.6602C128.82 11.9648 128.48 11.2109 128.254 10.3984C128.184 10 128.137 9.60156 128.113 9.20312C128.09 8.80469 128.094 8.40625 128.125 8.00781C128.156 7.60156 128.215 7.19531 128.301 6.78906C128.395 6.38281 128.523 5.96875 128.688 5.54688C128.93 4.96094 129.242 4.42188 129.625 3.92969C130.016 3.4375 130.457 3.00391 130.949 2.62891C131.441 2.25391 131.973 1.94141 132.543 1.69141C133.121 1.44141 133.715 1.26563 134.324 1.16406C134.934 1.05469 135.555 1.02734 136.188 1.08203C136.82 1.13672 137.438 1.27734 138.039 1.50391C138.273 1.60547 138.48 1.70312 138.66 1.79688C138.848 1.88281 139.031 1.99609 139.211 2.13672C139.281 2.06641 139.348 2 139.41 1.9375C139.48 1.86719 139.547 1.78516 139.609 1.69141C139.68 1.58984 139.746 1.46094 139.809 1.30469C139.879 1.14844 139.949 0.945312 140.02 0.695312H140.465V4.92578H140.289C140.125 4.68359 139.918 4.44922 139.668 4.22266C139.418 3.99609 139.148 3.78906 138.859 3.60156C138.57 3.41406 138.266 3.25 137.945 3.10938C137.633 2.96094 137.336 2.84766 137.055 2.76953C136.578 2.62109 136.07 2.55859 135.531 2.58203C135 2.60547 134.477 2.69141 133.961 2.83984C133.453 2.98047 132.977 3.18359 132.531 3.44922C132.086 3.71484 131.707 4.02734 131.395 4.38672C130.902 4.93359 130.508 5.57031 130.211 6.29688C129.914 7.02344 129.766 7.79297 129.766 8.60547C129.766 9.40234 129.914 10.1602 130.211 10.8789C130.516 11.5898 130.93 12.2188 131.453 12.7656C131.977 13.3047 132.594 13.7344 133.305 14.0547C134.023 14.375 134.793 14.5352 135.613 14.5352C135.934 14.5352 136.234 14.5156 136.516 14.4766C136.797 14.4297 137.066 14.3594 137.324 14.2656C137.59 14.1719 137.855 14.0586 138.121 13.9258C138.387 13.793 138.66 13.6367 138.941 13.457V10.3164H137.23C137.465 10.0898 137.672 9.84766 137.852 9.58984C138.031 9.32422 138.188 9.05469 138.32 8.78125H140.465ZM152.746 14.6523V16H143.688V3.58984C143.656 3.28516 143.609 3.05078 143.547 2.88672C143.484 2.72266 143.371 2.56641 143.207 2.41797C143.098 2.30859 142.941 2.19531 142.738 2.07812C142.535 1.95312 142.266 1.85156 141.93 1.77344L141.918 1.31641H152.746V2.78125H145.34V7.90234H151.938V9.26172H145.34V14.6523H152.746ZM164.055 14.6055V16.0117H156.062V3.8125C156.062 3.48438 156.027 3.22656 155.957 3.03906C155.887 2.84375 155.805 2.69141 155.711 2.58203C155.656 2.52734 155.598 2.46875 155.535 2.40625C155.48 2.34375 155.398 2.28125 155.289 2.21875C155.188 2.14844 155.059 2.08203 154.902 2.01953C154.754 1.95703 154.559 1.89844 154.316 1.84375V1.35156L157.785 1.31641V14.6055H164.055Z" fill="black"/>
</svg>
